<?xml version="1.0" encoding="UTF-8" standalone="no"?>
<!-- Created with Inkscape (http://www.inkscape.org/) -->

<svg
   xmlns:dc="http://purl.org/dc/elements/1.1/"
   xmlns:cc="http://creativecommons.org/ns#"
   xmlns:rdf="http://www.w3.org/1999/02/22-rdf-syntax-ns#"
   xmlns:svg="http://www.w3.org/2000/svg"
   xmlns="http://www.w3.org/2000/svg"
   xmlns:sodipodi="http://sodipodi.sourceforge.net/DTD/sodipodi-0.dtd"
   xmlns:inkscape="http://www.inkscape.org/namespaces/inkscape"
   width="210mm"
   height="297mm"
   viewBox="0 0 210 297"
   version="1.1"
   id="svg8"
   inkscape:version="0.92.4 (f8dce91, 2019-08-02)"
   sodipodi:docname="jbs.svg"
   enable-background="new">
  <defs
     id="defs2" />
  <sodipodi:namedview
     id="base"
     pagecolor="#ffffff"
     bordercolor="#666666"
     borderopacity="1.0"
     inkscape:pageopacity="0.0"
     inkscape:pageshadow="2"
     inkscape:zoom="0.25"
     inkscape:cx="431.38624"
     inkscape:cy="751.04801"
     inkscape:document-units="px"
     inkscape:current-layer="layer6"
     showgrid="false"
     showborder="true"
     inkscape:window-width="1299"
     inkscape:window-height="713"
     inkscape:window-x="67"
     inkscape:window-y="27"
     inkscape:window-maximized="1"
     inkscape:snap-others="false"
     inkscape:object-nodes="false" />
  <metadata
     id="metadata5">
    <rdf:RDF>
      <cc:Work
         rdf:about="">
        <dc:format>image/svg+xml</dc:format>
        <dc:type
           rdf:resource="http://purl.org/dc/dcmitype/StillImage" />
        <dc:title></dc:title>
      </cc:Work>
    </rdf:RDF>
  </metadata>
  <g
     inkscape:label="Layer 1"
     inkscape:groupmode="layer"
     id="layer1"
     style="display:inline;opacity:0.62999998" />
  <g
     inkscape:groupmode="layer"
     id="layer4"
     inkscape:label="face">
    <path
       style="fill:#ffffff;stroke:#000000;stroke-width:0.21343501px;stroke-linecap:butt;stroke-linejoin:miter;stroke-opacity:1"
       d="m 42.181182,134.10819 c 0,0 -5.54931,15.36732 -4.695571,32.44212 v 0.85374 c 0,0 2.561221,43.32732 12.165797,42.47358 0,0 32.036074,34.78425 44.411619,25.12529 0,0 66.103573,19.31793 70.027523,-32.29717 0,0 10.86633,-18.11057 11.47002,-36.22114 0,0 4.82948,-29.88241 3.32028,-35.31558 0,0 -10.86635,-71.234886 -53.12433,-46.483791 0,0 -82.704905,-4.829476 -78.177264,2.716584 z"
       id="path939"
       inkscape:connector-curvature="0" />
  </g>
  <g
     inkscape:groupmode="layer"
     id="layer3"
     inkscape:label="Layer 3"
     style="opacity:1;">
    <path
       style="display:inline;opacity:1;fill:#000000;fill-opacity:1;stroke:#000000;stroke-width:0.21343501px;stroke-linecap:butt;stroke-linejoin:miter;stroke-opacity:1"
       d="m 143.13596,218.8419 c -6.40305,-20.48976 -27.31969,-20.0629 -27.31969,-20.0629 0,0 -11.95237,8.96427 -20.916633,-2.13434 0,0 -23.477856,1.70748 -34.576477,19.63602 0,0 -23.477854,-26.89281 -22.624113,-52.50502 0,0 -11.525491,61.46929 25.612204,105.86377 0,0 11.952361,32.44213 46.955709,19.63602 0,0 32.01526,-6.40305 52.93189,-55.06622 0,0 11.95236,-18.35542 14.51358,-64.88427 l -3.41496,-6.40304 c 0,0 -16.64794,57.20059 -31.16151,55.91998 z"
       id="path888"
       inkscape:connector-curvature="0" />
  </g>
  <g
     inkscape:groupmode="layer"
     id="layer2"
     inkscape:label="Glasses">
    <path
       style="fill:#000000;stroke:#000000;stroke-width:0.21343501px;stroke-linecap:butt;stroke-linejoin:miter;stroke-opacity:1"
       d="m 96.820547,141.36499 c 0,0 -23.691287,-14.72702 -67.232032,-0.42688 0,0 -0.640305,5.97618 1.707481,11.31206 0,0 5.762746,2.77465 9.604577,15.79418 0,0 9.177705,12.16581 29.454033,9.17772 0,0 20.276328,0.42687 23.264421,-11.31206 0,0 4.05526,-15.79419 8.750833,-15.36732 0,0 7.8971,-2.98809 9.17771,6.61648 0,0 4.90901,15.36732 13.44641,17.0748 0,0 27.95999,6.82993 40.12579,-1.9209 0,0 6.82991,-6.40306 9.60457,-15.7942 0,0 -0.21344,-1.92092 5.33587,-6.18961 0,0 1.28061,-2.77466 0.85374,-11.09863"
       id="path4530"
       inkscape:connector-curvature="0" />
    <path
       style="fill:#000000;stroke:#000000;stroke-width:0.21343501px;stroke-linecap:butt;stroke-linejoin:miter;stroke-opacity:1"
       d="m 180.91395,139.23063 c 0,0 -45.24822,-10.45831 -65.31112,0 0,0 -10.67174,4.90901 -18.782283,2.13436"
       id="path4532"
       inkscape:connector-curvature="0" />
    <path
       style="fill:#f9f9f9;stroke:#000000;stroke-width:0.21343501px;stroke-linecap:butt;stroke-linejoin:miter;stroke-opacity:1"
       d="m 92.765287,147.5546 c 0,0 -1.49405,-8.32397 -25.612207,-9.17771 0,0 -26.679378,-1.28061 -28.600292,8.75084 0,0 -0.640306,21.9838 15.580756,26.03906 0,0 25.825638,4.26872 34.149605,-5.5493 0,0 7.043358,-5.54931 4.482138,-20.06289 z"
       id="path4534"
       inkscape:connector-curvature="0" />
    <path
       style="fill:#ffffff;stroke:#000000;stroke-width:0.21343501px;stroke-linecap:butt;stroke-linejoin:miter;stroke-opacity:1"
       d="m 159.99732,139.0172 c -35.85709,-5.54931 -43.54074,6.40305 -43.54074,6.40305 0,0 -5.97619,14.08671 7.68366,24.97189 0,0 31.16151,10.8852 43.96761,-7.04335 0,0 7.04336,-14.08671 0.42687,-21.13007 0,0 -5.97619,-3.41495 -8.5374,-3.20152 z"
       id="path4536"
       inkscape:connector-curvature="0" />
  </g>
  <g
     inkscape:groupmode="layer"
     id="layer5"
     inkscape:label="Mouth">
    <path
       style="fill:#ffffff;stroke:#000000;stroke-width:0.21343501px;stroke-linecap:butt;stroke-linejoin:miter;stroke-opacity:1"
       d="m 104.71764,212.43885 c 0,0 7.2568,7.25679 24.3316,11.09861 0,0 4.69558,14.08672 -13.23297,5.97618 0,0 -3.84183,-11.09861 -15.79419,-5.97618 0,0 -12.379236,-2.98809 -11.952366,7.68366 0,0 -17.074803,2.13435 -14.086713,-8.11053 0,0 10.671746,-3.41495 30.734639,-10.67174 z"
       id="path897"
       inkscape:connector-curvature="0" />
  </g>
  <g
     inkscape:groupmode="layer"
     id="layer6"
     inkscape:label="Hair">
    <path
       style="fill:#000000;stroke:#000000;stroke-width:0.21343501px;stroke-linecap:butt;stroke-linejoin:miter;stroke-opacity:1"
       d="m 42.394617,135.17537 c 0,0 6.829921,-20.91663 6.40305,-39.272045 0,0 8.964273,3.414961 14.086712,-7.256802 0,0 11.952363,17.074807 52.078151,8.537412 0,0 29.88091,-10.671763 40.55266,-6.829932 0,0 5.12244,-12.806099 16.64793,40.552667 l 8.11052,1.28061 c 0,0 6.40305,-53.358766 -5.5493,-68.726088 0,0 -9.39114,-45.248224 -58.4812,-56.7737152 0,0 -30.307777,12.3792322 -40.552658,6.8299212 0,0 -41.406396,23.904719 -40.552655,66.164857 0,0 -2.988091,51.651285 7.25679,55.493115 z"
       id="path900"
       inkscape:connector-curvature="0" />
  </g>
  <g
     inkscape:groupmode="layer"
     id="layer7"
     inkscape:label="Eyebrows">
    <path
       style="fill:#000000;stroke:#000000;stroke-width:0.21343501px;stroke-linecap:butt;stroke-linejoin:miter;stroke-opacity:1"
       d="m 119.6581,126.2111 c 0,0 -2.56122,8.11053 4.2687,8.11053 0,0 25.61221,-5.12244 41.4064,0 0,0 -1.70748,-11.09862 -6.82992,-9.81801 0,0 -38.41832,3.41496 -38.84518,1.70748 z"
       id="path903"
       inkscape:connector-curvature="0" />
    <path
       style="fill:#000000;stroke:#000000;stroke-width:0.21343501px;stroke-linecap:butt;stroke-linejoin:miter;stroke-opacity:1"
       d="m 82.520402,125.35736 c 0,0 9.818011,5.54931 4.695571,8.11053 0,0 -30.734643,-5.12244 -41.833265,0.42687 0,0 2.56122,-11.52549 12.379232,-9.39114 z"
       id="path905"
       inkscape:connector-curvature="0" />
  </g>
  <g
     inkscape:groupmode="layer"
     id="layer8"
     inkscape:label="Nose">
    <path
       style="fill:none;stroke:#000000;stroke-width:0.21343501px;stroke-linecap:butt;stroke-linejoin:miter;stroke-opacity:1"
       d="m 80.386051,182.55795 c 0,0 -4.2687,6.40305 7.683661,5.97617 0,0 3.841832,0 8.964265,3.41497 0,0 6.829923,6.40305 14.940463,-0.42687 0,0 6.82992,-7.68366 11.09862,-3.84183 0,0 4.69557,-0.85374 0.42687,-7.68366"
       id="path908"
       inkscape:connector-curvature="0" />
  </g>
</svg>
